<svg width="24" height="24" viewBox="0 0 24 24" fill="none" xmlns="http://www.w3.org/2000/svg">
  <path d="M12 2C8.5 2 6 4.5 6 8c0 1.5 0.5 2.5 1 3.5C6.5 12.5 6 13.5 6 15c0 2.5 1.5 4 3 4.5V20c0 1 1 2 3 2s3-1 3-2v-0.5c1.5-0.5 3-2 3-4.5 0-1.5-0.5-2.5-1-3.5 0.5-1 1-2 1-3.5C18 4.5 15.5 2 12 2z" fill="currentColor"/>
  <path d="M9 8c0-1.5 1.5-3 3-3s3 1.5 3 3-1.5 3-3 3-3-1.5-3-3z" fill="currentColor" opacity="0.3"/>
  <path d="M8 12c0.5-0.5 1-1 2-1s1.5 0.5 2 1" stroke="currentColor" stroke-width="1" fill="none"/>
  <path d="M12 12c0.5-0.5 1-1 2-1s1.5 0.5 2 1" stroke="currentColor" stroke-width="1" fill="none"/>
</svg> 